<?xml version="1.0" standalone="no"?>
<!DOCTYPE svg PUBLIC "-//W3C//DTD SVG 1.1//EN" "http://www.w3.org/Graphics/SVG/1.1/DTD/svg11.dtd" >
<!--
2013-9-30: Created.
-->
<svg>
<metadata>
Created by iconfont
</metadata>
<defs>

<font id="iconfont" horiz-adv-x="1024" >
  <font-face
    font-family="iconfont"
    font-weight="500"
    font-stretch="normal"
    units-per-em="1024"
    ascent="896"
    descent="-128"
  />
    <missing-glyph />
    
    <glyph glyph-name="ktv" unicode="&#59018;" d="M946.163508 465.538664c-77.745826 13.854783-151.27099 50.617365-209.870912 109.094949-58.569338 58.538753-95.240166 132.033332-109.03378 209.748574 78.663361 49.302231 192.713001 31.86906 271.773961-47.130731C977.940815 658.312834 995.343401 544.293779 946.163508 465.538664M891.845417 411.251157c-74.626206 20.858636-144.572982 59.578627-202.010693 116.924584-57.376542 57.437711-96.096532 127.415071-116.863415 202.010693-49.179893-78.72453-31.746722-192.77417 47.161315-271.743377C699.101831 379.53502 813.059718 362.071264 891.845417 411.251157M579.363472 61.425525c-98.145695 0-168.367731-61.321944-230.27078-115.456528-68.386966-59.792718-127.690332-111.633464-214.947941-84.719094-17.280248 12.692572-17.769601 23.060721-17.983692 26.57794-1.192796 23.580658 27.403722 55.357964 41.442012 66.980078 1.743317 1.406887 2.752606 3.333712 4.098324 5.107613 22.999552-8.043726 49.516323-3.425465 67.989367 15.016995l446.931454 367.901078c-36.976673 15.659269-72.21003 38.352976-102.886294 69.151579-30.768018 30.737433-53.461725 65.970789-69.090409 102.886294L136.744435 67.940026c-16.393298-16.332129-21.103312-39.025836-16.668558-60.037394-1.376303-0.856366-2.936113-1.284549-4.220662-2.293838-7.003853-5.749888-68.386966-58.018817-65.420268-120.869986 1.101042-22.082017 10.735163-53.981661 50.586781-80.681939l7.921388-3.792479c25.568651-8.563663 49.393985-12.264389 71.812431-12.264389 87.410531 0 152.616708 56.948359 211.583644 108.513844 58.355246 51.076133 113.499119 99.216152 186.993698 99.216152 169.37702 0 300.492817-181.519071 301.86912-183.292972 10.429318-14.894657 31.043278-18.289537 45.723843-7.768466 14.802903 10.459903 18.289537 30.951525 7.829635 45.723843C928.699753-140.982766 782.933975 61.425525 579.363472 61.425525"  horiz-adv-x="1024" />

    
    <glyph glyph-name="yingyuan" unicode="&#59167;" d="M956.683-104.809l-230.99 0c143.158 78.47 240.226 230.555 240.226 405.328 0 255.124-206.82 461.938-461.939 461.938-255.121 0-461.937-206.814-461.937-461.938 0-255.122 206.816-461.934 461.937-461.934 2.469 0 4.927 0.055 7.387 0.094 0.615-0.039 1.226-0.094 1.852-0.094l443.465 0c15.628 0 28.301 12.674 28.301 28.301C984.983-117.482 972.311-104.809 956.683-104.809zM736.757 387.286c46.916 0 84.955-38.038 84.955-84.956 0-46.925-38.039-84.957-84.955-84.957-46.917 0-84.955 38.032-84.955 84.957C651.802 349.248 689.84 387.286 736.757 387.286zM503.979 618.253c46.921 0 84.957-38.038 84.957-84.955 0-46.921-38.035-84.957-84.957-84.957-46.919 0-84.958 38.036-84.958 84.957C419.021 580.215 457.06 618.253 503.979 618.253zM270.2 212.751c-46.92 0-84.958 38.039-84.958 84.957 0 46.92 38.037 84.958 84.958 84.958 46.917 0 84.955-38.038 84.955-84.958C355.155 250.79 317.117 212.751 270.2 212.751zM419.021 66.74c0 46.92 38.039 84.957 84.958 84.957 46.921 0 84.957-38.037 84.957-84.957 0-46.918-38.035-84.955-84.957-84.955C457.06-18.215 419.021 19.822 419.021 66.74z"  horiz-adv-x="1024" />

    
    <glyph glyph-name="fangdajing" unicode="&#58895;" d="M464.433658 36.588569c-213.688847 0-387.540384 173.851537-387.540384 387.540384S250.744811 811.669336 464.433658 811.669336s387.540384-173.851537 387.540384-387.540384S678.121482 36.588569 464.433658 36.588569zM464.433658 777.969816c-195.110723 0-353.840864-158.730141-353.840864-353.840864s158.730141-353.840864 353.840864-353.840864 353.840864 158.730141 353.840864 353.840864S659.544381 777.969816 464.433658 777.969816zM925.33691-43.669336 706.292078 141.675976 728.061894 167.39473 947.106726-17.950582Z"  horiz-adv-x="1024" />

    
    <glyph glyph-name="jishiben" unicode="&#58901;" d="M860.774475 692.088844l-92.347245 0 0 18.377556c0 10.971889-8.845459 20.037359-20.306488 20.037359L640.497583 730.503758c-5.959735 24.095791-18.374486 45.354977-35.06461 62.290695-23.874757 23.874757-57.279564 38.902008-93.572142 38.902008-36.506449 0-69.204152-15.026228-93.542466-38.902008-16.934694-16.935718-29.349445-38.194904-35.066657-62.290695L275.631618 730.503758c-11.461029 0-20.062941-9.06547-20.062941-20.037359l0-18.377556-92.589768 0c-18.621103 0-33.404808-15.516392-33.404808-33.650401l0-688.48041c0-18.625196 14.783705-33.654494 33.404808-33.654494l697.795567 0c18.622126 0 33.651424 15.030321 33.651424 33.654494l0 688.48041C894.425899 676.573475 879.395578 692.088844 860.774475 692.088844L860.774475 692.088844zM446.958658 764.155183 446.958658 764.155183c16.47216 16.932648 39.61116 26.977421 64.903196 26.977421 25.317619 0 48.459688-10.04375 64.931848-26.977421 9.530051-9.312086 17.179264-20.769023 21.943778-33.650401L425.478438 730.504782C430.02294 743.38616 437.429631 754.843096 446.958658 764.155183L446.958658 764.155183zM295.668976 690.183448 295.668976 690.183448l432.411337 0 0-63.732533L295.668976 626.450914 295.668976 690.183448 295.668976 690.183448zM827.369667 3.602294 827.369667 3.602294 196.871833 3.602294l0 620.942201 58.69582 0 0-18.131963c0-11.461029 8.601912-20.037359 20.062941-20.037359l472.489124 0c11.461029 0 20.306488 8.576329 20.306488 20.037359L768.426207 624.544495l58.942437 0L827.368644 3.602294 827.369667 3.602294zM314.756707 337.215464 314.756707 337.215464c-18.621103 0-33.650401-14.783705-33.650401-33.868365 0-18.377556 15.030321-33.43039 33.650401-33.43039s33.647331 15.051811 33.647331 33.43039C348.405061 322.432783 333.37781 337.215464 314.756707 337.215464L314.756707 337.215464zM314.756707 194.992275 314.756707 194.992275c-18.621103 0-33.650401-14.783705-33.650401-33.404808 0-18.618033 15.030321-33.404808 33.650401-33.404808s33.647331 14.786775 33.647331 33.404808C348.405061 180.208571 333.37781 194.992275 314.756707 194.992275L314.756707 194.992275zM707.552791 466.09781 707.552791 466.09781 415.46027 466.09781c-11.461029 0-20.283975-9.312086-20.283975-20.283975 0-11.217483 8.822946-20.283975 20.283975-20.283975l292.093545 0c10.997472 0 20.062941 9.06547 20.062941 20.283975C727.616756 456.785723 718.550263 466.09781 707.552791 466.09781L707.552791 466.09781zM314.756707 479.468328 314.756707 479.468328c-18.621103 0-33.650401-15.280008-33.650401-33.654494 0-18.621103 15.030321-34.139541 33.650401-34.139541s33.647331 15.518438 33.647331 34.139541C348.405061 464.189344 333.37781 479.468328 314.756707 479.468328L314.756707 479.468328zM707.552791 181.871443 707.552791 181.871443 415.46027 181.871443c-11.461029 0-20.283975-9.312086-20.283975-20.283975s8.822946-20.037359 20.283975-20.037359l292.093545 0c10.997472 0 20.062941 9.06547 20.062941 20.037359S718.550263 181.871443 707.552791 181.871443L707.552791 181.871443zM707.552791 323.874621 707.552791 323.874621 415.46027 323.874621c-11.461029 0-20.283975-9.091052-20.283975-20.526499 0-10.997472 8.822946-19.820418 20.283975-19.820418l292.093545 0c10.997472 0 20.062941 8.822946 20.062941 19.820418C727.616756 314.783569 718.550263 323.874621 707.552791 323.874621L707.552791 323.874621z"  horiz-adv-x="1024" />

    
    <glyph glyph-name="04" unicode="&#58887;" d="M511.193635 896c-281.853319 0-511.172145-229.318826-511.172145-511.172145 0-122.9441 44.262086-241.750973 124.655068-334.530053 97.223299-112.271016 238.114143-176.642093 386.517077-176.642093 281.853319 0 511.172145 229.318826 511.172145 511.172145S793.046954 896 511.193635 896zM511.193635-77.661521c-109.490693 0-214.055191 39.274492-296.768007 108.639303 21.999037 146.970306 147.913794 256.483512 297.956066 256.483512 148.259672 0 273.390577-105.971543 297.566186-251.972778 0.13917-0.844228 0.651846-1.497097 0.871857-2.307555C730.023572-35.768389 625.484657-77.661521 511.193635-77.661521zM511.193635 336.145086c-89.593528 0-162.475442 72.881914-162.475442 162.450882 0 89.593528 72.881914 162.475442 162.475442 162.475442 89.568968 0 162.450882-72.881914 162.450882-162.475442C673.644517 409.027 600.762603 336.145086 511.193635 336.145086zM851.710029 72.958918C821.72511 191.017754 733.565235 282.304853 621.191888 318.719204c60.540841 37.158295 101.135398 103.775528 101.135398 179.876764 0 116.430756-94.703919 211.158211-211.134675 211.158211s-211.158211-94.727455-211.158211-211.158211c0-76.508511 41.041742-143.431713 102.128005-180.469258C289.565978 280.910087 201.836915 188.329529 172.708504 70.534705c-3.678786 3.959172-7.682983 7.538697-11.234879 11.640108-72.715115 83.935668-112.769366 191.404308-112.769366 302.653041 0 255.016091 207.473285 462.489376 462.489376 462.489376S973.683011 639.842922 973.683011 384.827855C973.683011 264.598586 927.181931 155.293111 851.710029 72.958918z"  horiz-adv-x="1024" />

    
    <glyph glyph-name="mima" unicode="&#58896;" d="M523.67424207 257.73088911c-10.83312877 0-12.97093297 10.85755429-12.97093299 21.61618621l0 51.8837325c0 10.75863251 2.1378042 23.7808583 12.97093299 23.7808583 10.83007595 0 12.97093297-13.02222578 12.97093296-23.7808583l0-51.8837325C536.64517502 268.58844279000004 534.50431741 257.73088911 523.67424207 257.73088911L523.67424207 257.73088911zM719.89975429 140.99126966999995L327.44872923 140.99126966999995c-32.4566427 0-58.86869197 26.18794888-58.86869196 58.36981003L268.58003787 413.38147554c0 32.17819729 28.07417497 56.20574836 60.53081764 56.20574836l389.12677249 0c32.45420032 0 60.53020721-24.02755167 60.53020721-56.20574837l0-214.02039644C778.76783521 167.17921796999997 752.35273313 140.99126966999995 719.89975429 140.99126966999995L719.89975429 140.99126966999995zM337.75794069 443.64535796c-25.72997862 0-41.81571862-13.21396249-43.23603688-34.58895171l0-207.53431951c0-10.74153472 23.77658401-34.58895171 34.5889517-34.58895173l389.12677249 0c10.83007595 0 34.58895171 23.84741639 34.58895171 34.58895173L752.82657971 409.05640686c0 23.50668659-10.2628034 34.58895171-34.58895171 34.5889517L337.75794069 443.64535796 337.75794069 443.64535796zM661.03106233 450.130214c-10.85083701 0-11.97133715 0.06839002-11.97133714 10.80992533l0 69.17790282c0 66.12965448-73.64707987 121.06163531-129.70872048 121.06163532-57.37693086 0-121.06163531-48.91730811-121.06163531-121.06163532l0-60.53081765c0-10.74153472-1.14248269-19.4570105-11.97194761-19.4570105-10.83251832 0-13.96991834 8.71547519-13.96991834 19.4570105l0 60.53081765c0 96.50344963 70.33748332 147.00350186 147.00350185 147.00350186 74.74254464 0 155.65058702-55.98958673 155.65058702-147.00350186l0-69.17790282C675.00159172 450.19860401 671.88128891 450.130214 661.03106233 450.130214L661.03106233 450.130214zM661.03106233 450.130214"  horiz-adv-x="1024" />

    
    <glyph glyph-name="jiantoufuben" unicode="&#58974;" d="M740.485106 385.206491c0.920486 2.45463-0.920486 6.852508-3.477392 9.409413l0 0L304.890627 890.655637c-5.113812 5.113812-12.784529 7.670718-17.898341 2.556906S279.321569 880.428014 284.43538 875.314202L711.438655 384.388281 284.43538-106.537639c-5.113812-5.113812-5.113812-12.784529 0-17.898341 5.113812-5.113812 12.784529-5.113812 17.898341 2.556906l429.560181 496.039732"  horiz-adv-x="1024" />

    
    <glyph glyph-name="zhengpinbaozheng" unicode="&#59124;" d="M299.406091-10.000516c-11.270694 6.021134-15.438621 20.070104-9.417487 31.340799s20.070104 15.438621 31.340799 9.417487c28.870538-15.59314 59.748802-27.789926 92.170213-35.972283 31.495318-7.874341 64.380286-12.042267 98.500385-12.042267 110.850667 0 211.20426 44.927235 283.766902 117.489878s117.489878 172.915211 117.489878 283.766902-44.927235 211.20426-117.489878 283.766902S622.850667 785.25678 512 785.25678s-211.20426-44.927235-283.766902-117.489878S110.74322 494.851691 110.74322 384c0-48.787146 8.645914-95.412047 24.548092-138.487098 16.519232-44.927235 40.603767-85.99456 70.864978-121.504308 8.336876-9.726525 7.101745-24.393573-2.62478-32.57593-9.726525-8.336876-24.239054-7.101745-32.42141 2.62478-33.965579 39.832194-61.138452 85.685521-79.355349 135.553279-17.754363 48.169069-27.480888 100.19805-27.480888 154.389276 0 123.665531 50.176796 235.597833 131.076314 316.65187 81.054037 80.899518 192.986339 131.076314 316.65187 131.076314s235.597833-50.176796 316.65187-131.076314c80.899518-81.054037 131.076314-192.986339 131.076314-316.65187s-50.176796-235.597833-131.076314-316.65187c-81.054037-80.899518-192.986339-131.076314-316.65187-131.076314-37.82549 0-74.569346 4.786003-109.770056 13.586436C365.9476-41.032276 331.519486-27.44584 299.406091-10.000516zM311.053362 593.589482l412.145781 0c12.301164-1.37737 19.126616-8.201799 20.503986-20.50501-1.37737-13.680581-8.202822-21.210068-20.503986-22.555715L550.95829 550.528758l0-135.332245 168.140465 0c10.924817 0 17.076934-6.856152 18.453281-20.50501-1.37737-13.680581-7.528464-20.50501-18.453281-20.50501L550.95829 374.186494l0-170.190147 192.744839 0c10.924817 0 17.076934-6.151094 18.455327-18.453281-1.379417-12.30321-7.53051-18.454304-18.455327-18.454304L292.599058 167.088762c-13.680581 0-20.50501 6.151094-20.50501 18.454304 0 12.302187 6.824429 18.453281 20.50501 18.453281l51.262524 0L343.861582 468.509742c1.345648 12.30321 8.874111 19.126616 22.555715 20.50501 12.302187-1.378393 19.126616-8.201799 20.50501-20.50501l0-264.512373 120.978329 0L507.900635 550.529781 311.053362 550.529781c-12.302187 1.345648-19.159362 8.874111-20.50501 22.555715C291.895023 585.387683 298.751175 592.212112 311.053362 593.589482z"  horiz-adv-x="1024" />

    
    <glyph glyph-name="shoujizhibo" unicode="&#58927;" d="M751.616 105.472h-496.64V776.704h497.152v-671.232zM503.296-35.84c-30.72 0-55.808 25.088-55.808 55.808s25.088 55.808 55.808 55.808 55.808-25.088 55.808-55.808-25.088-55.808-55.808-55.808zM260.096 859.648c-51.2 0-92.672-34.304-92.672-76.288v-799.232c0-41.984 41.472-76.288 92.672-76.288h485.888c51.2 0 92.672 34.304 92.672 76.288V783.872c0 41.984-41.472 76.288-92.672 76.288H260.096z"  horiz-adv-x="1024" />

    
    <glyph glyph-name="gouwuche" unicode="&#58934;" d="M846.36 170.74H354.987c-13.794 0-26.936 12.446-28.706 27.184l-51.509 362.723-29.127 168.118c-5.295 43.37-43.4 77.285-86.786 77.285h-38.54c-15.87 0-28.78-12.91-28.78-28.778s12.91-28.779 28.78-28.779h38.54c14.303 0 27.967-12.851 29.852-28.053l29.185-168.727 51.305-361.272c5.25-43.314 42.922-77.227 85.785-77.227h491.371c15.87 0 28.779 12.91 28.779 28.778 0.002 15.84-12.908 28.749-28.778 28.749zM914.564 688.73c-15.144 17.146-36.002 26.575-58.69 26.575h-523.79c-15.87 0-28.778-12.91-28.778-28.779s12.91-28.778 28.778-28.778h523.79c6.18 0 11.431-2.408 15.608-7.137 6.209-7.02 9.37-18.538 8.065-29.358l-47.665-272.731c-1.769-14.534-15.637-26.516-30.896-26.603L390.7 291.661c-7.658-0.552-14.62-4.033-19.64-9.864-5.034-5.802-7.484-13.229-6.92-20.887 1.088-14.97 13.679-26.69 28.663-26.69 0.682 0 1.407 0.028 2.118 0.087l408.154 30.17c42.936 0 80.535 33.218 85.698 75.603l47.694 272.73c3.452 28.604-4.526 56.309-21.903 75.92zM362.821-38.05c32.536 0 59.023 26.488 59.023 59.009 0 32.55-26.488 59.037-59.023 59.037S303.8 53.51 303.8 20.96c0-32.522 26.486-59.008 59.022-59.008zM786.365-38.05c32.521 0 59.008 26.488 59.008 59.009 0 32.55-26.488 59.037-59.008 59.037-32.55 0-59.037-26.487-59.037-59.037 0-32.522 26.486-59.008 59.037-59.008z"  horiz-adv-x="1024" />

    
    <glyph glyph-name="icon-03" unicode="&#58891;" d="M611.092 405.847l-113.051 79.901c-36.848 26.043-76.043 5.694-76.043-39.548v-173.692c0-45.399 38.939-65.788 76.043-39.548l113.051 79.899c34.308 24.309 34.502 68.583 0 92.989zM583.474 351.508l-113.015-79.901c-0.324-0.225-0.642-0.484-0.899-0.71 0.062 0.484 0.097 0.997 0.097 1.61v173.691c0 0.642-0.033 1.159-0.097 1.609 0.257-0.193 0.546-0.449 0.899-0.707l113.015-79.868c7.719-5.463 7.685-10.29 0-15.723zM872.756 702.363h-298.898l69.835 69.483c9.324 9.292 9.261 24.242-0.062 33.507l-0.802 0.835c-9.55 9.487-24.373 9.295-33.666 0.065l-80.253-79.868c-3.36-3.261-5.667-7.591-6.373-12.44 0.384 11.49-2.761 14.522-6.489 16.645l-74.754 75.666c-9.292 9.229-24.149 9.422-33.666-0.065l-0.835-0.835c-9.323-9.262-9.387-24.213-0.062-33.507l69.836-69.483h-325.328c-55.013 0-99.772-45.206-99.772-100.383v-498.596c0-55.212 44.756-100.417 99.772-100.417h721.516c54.979 0 99.772 45.206 99.772 100.417v498.596c-0.001 55.174-44.789 100.383-99.772 100.383zM924.878 103.384c0-29.199-23.568-53.024-52.118-53.024h-721.516c-28.55 0-52.154 23.824-52.154 53.024v498.596c0 29.165 23.599 52.988 52.154 52.988h721.516c28.55 0 52.118-23.824 52.118-52.988v-498.596z"  horiz-adv-x="1024" />

    
    <glyph glyph-name="icon-09" unicode="&#58892;" d="M511.999 611.263c79.108 0 143.415-65.779 143.415-146.592 0-80.816-64.309-146.592-143.415-146.592s-143.415 65.776-143.415 146.592c0 80.815 64.31 146.592 143.415 146.592M511.999 663.012c-107.164 0-194.096-88.83-194.096-198.349s86.933-198.342 194.096-198.342c107.162 0 194.063 88.822 194.063 198.342 0.002 109.52-86.896 198.349-194.063 198.349M719.697 751.747c-25.584 0-46.308-21.182-46.308-47.346 0-26.135 20.723-47.346 46.308-47.346s46.307 21.211 46.307 47.346c0.002 26.163-20.721 47.346-46.307 47.346M308.919 744.197c-25.068 0-45.361-20.788-45.361-46.372 0-25.613 20.295-46.369 45.361-46.369 25.061 0 45.36 20.755 45.36 46.369 0 25.585-20.295 46.372-45.36 46.372M814.237 30.445c0-13.417-10.609-24.269-23.723-24.269h-557.036c-13.083 0-23.718 10.851-23.718 24.269v724.513c0 13.385 10.637 24.269 23.718 24.269h557.039c13.11 0 23.722-10.883 23.722-24.269l-0.001-724.513zM868.034 30.445v724.513c0 43.769-34.69 79.228-77.516 79.228h-557.039c-42.794-0.001-77.516-35.46-77.516-79.228v-724.513c0-43.772 34.721-79.262 77.516-79.262h557.039c42.854 0.001 77.518 35.488 77.518 79.262zM432.069 466.106c0-45.087 35.792-81.676 79.93-81.676s79.901 36.588 79.901 81.676c0 45.115-35.766 81.705-79.901 81.705-44.138 0-79.93-36.588-79.93-81.705zM505.675 78.16h0.096c0.019-0 0.042-0 0.064-0 6.298 0 12.337 1.106 17.935 3.134 20.445 7.166 35.697 27.678 35.697 51.854 0 30.351-24.085 54.958-53.795 54.958-29.744 0-53.827-24.605-53.827-54.958-0.001-30.382 24.083-54.989 53.827-54.989z"  horiz-adv-x="1024" />

    
    <glyph glyph-name="icon-08" unicode="&#58893;" d="M945.287 720.356c10.62 0 19.216 8.881 19.216 19.753v15.861c0 10.937-8.597 19.788-19.216 19.788h-866.574c-10.682-0.001-19.216-8.852-19.216-19.788v-15.861c0-10.871 8.533-19.753 19.216-19.753h27.686v-546.017h-27.686c-10.682-0.001-19.216-8.818-19.216-19.723v6.097c0-10.905 8.533-19.719 19.216-19.719h420.454v-138.585c-9.066-4.974-15.107-14.454-15.107-25.346v-0.067c0-15.826 12.517-28.722 27.94-28.722s27.937 12.895 27.937 28.724c0 0.021 0 0.046 0 0.070 0 10.905-6.072 20.393-15.019 25.265l-0.151 138.66h420.521c10.62 0 19.216 8.818 19.216 19.719v-6.097c0 10.905-8.597 19.719-19.216 19.719h-27.686v546.018h27.686zM879.17 182.715h-734.342v537.644h734.342l0.001-537.644zM255.63 573.271h63.207c7.961 0 14.473 6.638 14.473 14.889v39.029c0 8.247-6.51 14.916-14.473 14.916h-63.207c-7.967 0-14.475-6.668-14.475-14.916v-39.029c0.001-8.25 6.512-14.889 14.475-14.889zM255.63 412.413h63.207c7.961 0 14.473 6.698 14.473 14.948v39.030c0 8.219-6.51 14.886-14.473 14.886h-63.207c-7.967 0-14.475-6.668-14.475-14.886v-39.030c0.001-8.247 6.512-14.948 14.475-14.948zM255.63 252.685h63.207c7.961 0 14.473 6.668 14.473 14.916v39.030c0 8.219-6.51 14.916-14.473 14.916h-63.207c-7.967 0-14.475-6.698-14.475-14.916v-39.030c0.001-8.247 6.512-14.916 14.475-14.916zM824.749 628.451h-437.584v-45.539h436.382c0.063 23.797 0.82 21.743 1.201 45.539zM824.749 472.045h-437.584v-45.572h436.382c0.063 23.797 0.82 21.774 1.201 45.572zM824.749 313.806h-437.584v-45.543h436.382c0.063 23.801 0.82 21.744 1.201 45.543z"  horiz-adv-x="1024" />

    
    <glyph glyph-name="m-customer" unicode="&#58897;" d="M822.77 196.414h2.007c12.035 0 21.729-9.69 21.729-21.731v-218.953c0-12.033-9.695-21.731-21.729-21.731h-2.007c-12.033 0-21.727 9.697-21.727 21.731v218.953c0 11.702 9.695 21.731 21.727 21.731zM954.816 66.040v-2.001c0-12.037-9.693-21.731-21.729-21.731h-218.96c-12.031 0-21.729 9.695-21.729 21.731v2.001c0 12.037 9.697 21.731 21.729 21.731h218.959c12.038 0 21.731-9.695 21.731-21.731zM468.593 647.54c78.72 0 183.688-24.57 183.688-236.845 0-17.387 14.379-31.76 31.761-31.76 17.384 0 31.76 14.372 31.76 31.76 0 248.041-134.050 299.691-246.54 299.691-112.484 0-246.536-52.148-246.536-299.691 0-104.8 48.136-206.092 123.186-262.918v-4.679c-166.81-23.908-273.115-91.932-273.115-176.171 0-17.382 14.376-31.761 31.758-31.761 17.384 0 31.758 14.378 31.758 31.761 0 44.456 91.595 100.787 245.033 117.668 15.878 1.505 28.077 15.377 28.077 31.258v48.637c0 10.697-5.683 20.388-14.376 26.572-65.017 42.459-108.978 130.877-108.978 219.963-0.498 212.609 103.802 236.512 182.526 236.512zM858.874 493.598l-39.947 10.194c-12.705 182.021-165.142 326.265-350.334 326.265-188.706 0-342.648-149.426-350.839-335.958l-23.562-19.889c-7.19-6.182-11.2-14.875-11.2-24.067v-124.854c0-17.384 14.377-31.761 31.76-31.761s31.758 14.377 31.758 31.761v109.979l23.566 19.388c7.188 6.184 11.197 14.873 11.197 24.067 0 159.121 129.37 287.99 287.99 287.99 158.621 0 287.992-129.368 287.992-287.99 0-14.376 9.696-27.077 24.068-30.754l39.447-9.697v-113.491c0-17.384 14.374-31.756 31.758-31.756 17.382 0 31.756 14.372 31.756 31.756v138.061c-1.338 14.873-11.032 27.746-25.405 30.756zM740.704 364.73c-5.682-16.883-58.334-59.835-234.838-59.835-17.382 0-31.758-14.377-31.758-31.762 0-17.381 14.377-31.753 31.758-31.753 268.435 0 294.675 93.597 297.184 112.486l-31.253 4.010-31.090 6.855zM592.444 143.767v21.058c0 17.387-14.372 31.76-31.756 31.76-17.382 0-31.76-14.372-31.76-31.76v-48.636c0-15.884 12.2-29.587 28.079-31.26 16.38-2.004 32.259-4.010 47.135-6.683v64.016c-3.504 0-7.684 0.5-11.699 1.505z"  horiz-adv-x="1025" />

    
    <glyph glyph-name="shoujizhibo1" unicode="&#58894;" d="M1024.301854 896H157.154728A157.281825 157.281825 0 0 1 0 738.845272v-709.674657a157.281825 157.281825 0 0 1 157.154728-157.154728h867.147126a157.281825 157.281825 0 0 1 157.154728 157.154728V738.845272A157.281825 157.281825 0 0 1 1024.301854 896zM793.192894 357.889628l-143.253556-82.707997-143.253557-82.707998a30.185401 30.185401 0 0 0-45.23044 26.118315V549.423939a30.185401 30.185401 0 0 0 45.23044 26.118315l143.253557-82.707998 143.253556-82.707997a30.185401 30.185401 0 0 0 0-52.236631zM1379.58402 677.711892a87.251695 87.251695 0 0 1-88.268467 0l-202.305732-116.785726v-380.510806l202.289845-116.801614a88.268466 88.268466 0 0 1 132.4027 76.448499V601.27928a87.378791 87.378791 0 0 1-44.118346 76.432612z"  horiz-adv-x="1423" />

    
    <glyph glyph-name="baoyou" unicode="&#59039;" d="M61.96283164444441 333.7557333333334a25.049315555555552 25.049315555555552 0 0 1 27.717358933333333-22.0725248 25.03766471111111 25.03766471111111 0 0 1 22.101651911111112 27.676580977777775 399.5598848 399.5598848 0 0 0-0.8039082666666667 81.71902293333332 401.604608 401.604608 0 0 0 28.73680782222222 116.04241066666665c40.952718222222224 99.30597262222223 118.18616604444445 176.7374848 217.46301155555557 218.03972835555555 99.2768455111111 41.296418133333326 208.71322737777777 41.51778417777778 308.1590101333333 0.6174947555555554 99.44578275555556-40.894464 176.98215253333333-118.02305422222223 218.33682488888888-217.1600896s41.58186382222222-208.4277816888889 0.6233201777777778-307.73375431111106-118.18616604444445-176.7374848-217.46301155555557-218.03972835555555-208.71322737777777-41.51778417777778-308.1590101333333-0.6233201777777778c-46.49852017777778 19.124861155555553-88.35417884444445 46.2188999111111-124.41936782222221 80.5306368a25.095918933333333 25.095918933333333 0 0 1-35.441868799999995-0.8563370666666666 25.002712177777777 25.002712177777777 0 0 1 0.8563370666666666-35.38944c40.574065777777776-38.61089848888889 87.64930275555555-69.08368213333333 139.9091655111111-90.57949013333332 56.506595555555556-23.243434666666666 115.90260053333333-34.74281813333333 176.51611875555554-34.16027591111111a451.7556679111111 451.7556679111111 0 0 1 170.01494755555555 34.85932657777778c54.26963342222223 22.579336533333336 102.89443271111111 54.87547733333333 144.51124906666666 95.98548195555556 43.0964736 42.57801102222222 76.74993777777779 92.77567431111112 100.02249955555554 149.2065393777778 23.272561777777774 56.43086506666666 34.783596088888885 115.73366328888889 34.20687928888889 176.27727644444442a450.0371683555556 450.0371683555556 0 0 1-34.90592995555555 169.77610524444444 450.4216462222222 450.4216462222222 0 0 1-96.11946666666668 144.31318471111112c-42.636265244444445 43.044044799999995-92.90383360000001 76.6509056-149.41042915555553 99.88851484444444-55.16674844444445 22.69001955555555-113.07727075555555 34.177752177777776-172.19948088888887 34.177752177777776l-4.3166378666666665-0.017476266666666667c-58.53966791111111-0.5534151111111111-115.73948871111111-12.285815466666667-170.01494755555555-34.85932657777778-54.26963342222223-22.579336533333336-102.89443271111111-54.869651911111106-144.51124906666666-95.98548195555556-43.0964736-42.57801102222222-76.75576319999999-92.77567431111112-100.02832497777779-149.2065393777778a451.55760355555554 451.55760355555554 0 0 1-32.2961408-130.4719815111111 450.0721208888889 450.0721208888889 0 0 1 0.9145912888888889-91.95428977777777zM134.84468906666666 245.8908899555555a27.239674311111113 27.239674311111113 0 0 1-27.25715057777778 27.222198044444443c-15.052891022222221 0-27.262976-12.186783288888888-27.262976-27.222198044444443s12.204259555555556-27.222198044444443 27.262976-27.222198044444443a27.245499733333332 27.245499733333332 0 0 1 27.25715057777778 27.222198044444443zM246.8675584 440.55902435555555a267.7364053333333 267.7364053333333 0 0 1-11.336271644444446-17.785014044444445c-9.984773688888888-17.196646400000002-11.272191999999999-25.18912568888889-11.272191999999999-30.245592177777777v-114.13749759999999c0-19.829737244444445 15.979133155555555-35.954505955555554 35.62245688888889-35.954505955555554h19.701577955555557c6.5769016888888885-31.253390222222222 34.46319786666666-54.34536391111111 66.47389297777778-54.34536391111111 32.01069511111111 0 59.885340444444445 23.086148266666665 66.4564167111111 54.34536391111111h8.924546844444444a35.127296 35.127296 0 0 1 21.536585955555555 7.3283811555555545 35.185550222222226 35.185550222222226 0 0 1 21.5482368-7.3283811555555545h95.08836693333333c6.5769016888888885-31.253390222222222 34.4457216-54.34536391111111 66.47389297777778-54.34536391111111 32.01069511111111 0 59.885340444444445 23.086148266666665 66.4564167111111 54.34536391111111h41.238163911111116c19.643323733333332 0 35.62245688888889 16.124768711111113 35.62245688888889 35.954505955555554V561.0054542222222c0 19.829737244444445-15.979133155555555 35.954505955555554-35.62245688888889 35.954505955555554H464.4936817777778c-19.643323733333332 0-35.61663146666666-16.124768711111113-35.61663146666666-35.954505955555554v-40.952718222222224a34.82437404444444 34.82437404444444 0 0 1-7.468191288888889 0.7980828444444443H329.85652337777776c-5.936105244444445 0-14.324713244444444-2.2136604444444443-31.533010488888884-18.606398577777778-7.427413333333333-7.077888-15.938355199999998-16.252928-24.61823431111111-26.55809991111111l-0.09320675555555556-0.11068302222222222-6.524472888888888-7.753636977777778h0.15146097777777776c-0.29127111111111115-0.3378744888888889-0.5534151111111111-0.6873998222222222-0.8330353777777778-1.0310997333333334a464.09973759999997 464.09973759999997 0 0 1-19.538466133333333-26.231876266666664c0.017476266666666667 0.017476266666666667 0.017476266666666667 0 0 0z m379.21168497777774-224.05156408888888c-21.932714666666666 0-39.781808355555555 18.018030933333332-39.781808355555555 40.15463537777778s17.843268266666666 40.15463537777778 39.781808355555555 40.15463537777778c21.932714666666666 0 39.764332088888885-18.018030933333332 39.764332088888885-40.15463537777778s-17.825791999999996-40.15463537777778-39.764332088888885-40.15463537777778zM457.0662684444444 484.90796373333336V561.0112796444445a7.514794666666666 7.514794666666666 0 0 0 7.468191288888889 7.538096355555555h269.25684053333333a7.514794666666666 7.514794666666666 0 0 0 7.468191288888889-7.538096355555555v-282.63200995555553a7.514794666666666 7.514794666666666 0 0 0-7.468191288888889-7.538096355555555h-41.27311644444444c-6.413789866666667 30.816483555555553-32.87868302222222 53.38999466666667-64.44082062222222 54.327887644444445H624.7685233777778c-0.02330168888888889 0.017476266666666667-0.07573048888888888 0-0.13398471111111113 0H624.2034574222222v0.017476266666666667h-0.20388977777777775c-31.515534222222225-0.9903217777777777-57.95712568888888-23.54635662222222-64.36509013333334-54.327887644444445H464.55193599999996a7.514794666666666 7.514794666666666 0 0 0-7.468191288888889 7.538096355555555v206.51121777777777h-0.017476266666666667z m-111.02672213333334-268.40050346666663c-21.9152384 0-39.781808355555555 18.018030933333332-39.781808355555555 40.15463537777778s17.843268266666666 40.15463537777778 39.781808355555555 40.15463537777778 39.781808355555555-18.018030933333332 39.781808355555555-40.15463537777778-17.84909368888889-40.15463537777778-39.781808355555555-40.15463537777778z m-93.61453511111111 61.865984000000005h-0.07573048888888888V361.9799039999999h104.39156622222221c19.643323733333332 0 35.62245688888889 16.124768711111113 35.62245688888889 35.954505955555554v43.49260231111111c0 19.829737244444445-15.979133155555555 35.954505955555554-35.62245688888889 35.954505955555554h-43.411046400000004c0.7398286222222222 0.7223523555555555 1.4388792888888888 1.4330538666666666 2.155406222222222 2.1379299555555558 9.582819555555554 9.431358577777777 14.214030222222222 12.198434133333334 15.6762112 12.920786488888888h90.22413937777776a7.514794666666666 7.514794666666666 0 0 0 7.468191288888889-7.538096355555555v-206.41218559999996a7.514794666666666 7.514794666666666 0 0 0-7.468191288888889-7.538096355555555h-8.924546844444444c-6.139995022222223 29.173714488888887-31.00872248888889 51.56081208888889-60.689248711111105 54.10069617777777-0.22136604444444444 0.017476266666666667-0.43690666666666667 0.017476266666666667-0.6407964444444444 0.034952533333333334h-0.07573048888888888v-0.11068302222222222h-0.017476266666666667v0.11068302222222222h-0.07573048888888888v-0.09320675555555556l-0.07573048888888888 0.09320675555555556v-0.07573048888888888h-0.017476266666666667v0.07573048888888888l-0.09320675555555556-0.05825422222222222h-0.017476266666666667v0.05825422222222222h-0.08738133333333332v-0.034952533333333334l-0.46603377777777777 0.07573048888888888H348.0726186666667l-0.09320675555555556 0.017476266666666667v-0.034952533333333334l-0.07573048888888888 0.034952533333333334v-0.05825422222222222h-0.017476266666666667l-0.07573048888888888 0.05825422222222222v-0.07573048888888888 0.07573048888888888l-0.09320675555555556-0.07573048888888888-0.07573048888888888 0.07573048888888888v-0.07573048888888888h-0.017476266666666667l-0.07573048888888888 0.05825422222222222v-0.034952533333333334h-0.017476266666666667v0.034952533333333334l-0.09320675555555556-0.034952533333333334v0.017476266666666667H344.71717546666673c-0.05825422222222222 0.017476266666666667-0.11650844444444444 0-0.15146097777777776 0h-0.48933546666666666v0.034952533333333334-0.05825422222222222h-0.18641351111111112c-0.02330168888888889-0.017476266666666667-0.04077795555555555-0.017476266666666667-0.05825422222222222-0.017476266666666667v0.07573048888888888-0.07573048888888888h-0.017476266666666667c-0.02330168888888889-0.017476266666666667-0.04077795555555555-0.017476266666666667-0.05825422222222222-0.017476266666666667H342.8821674666667c-0.11650844444444444-0.017476266666666667-0.262144-0.017476266666666667-0.40195413333333335-0.017476266666666667h-0.6116693333333333a4.5554801777777785 4.5554801777777785 0 0 1-0.46603377777777777-0.07573048888888888c-0.034952533333333334-0.017476266666666667-0.07573048888888888-0.017476266666666667-0.09320675555555556-0.017476266666666667-0.034952533333333334 0-0.05825422222222222-0.017476266666666667-0.09320675555555556-0.017476266666666667s-0.05825422222222222-0.017476266666666667-0.09320675555555556-0.017476266666666667-0.05825422222222222-0.017476266666666667-0.09320675555555556-0.017476266666666667-0.05825422222222222-0.017476266666666667-0.09320675555555556-0.017476266666666667v0.13398471111111113c-29.977622755555554-2.2719146666666665-55.13762133333333-24.76969528888889-61.341696-54.158950399999995h-19.684101688888887a7.514794666666666 7.514794666666666 0 0 0-7.468191288888889 7.538096355555555v-0.011650844444444445h-0.017476266666666667z m0 112.06364728888889h-0.005825422222222223v1.9223893333333333c0.09320675555555556 0.6466218666666668 1.0544014222222222 5.615707022222222 9.145912888888889 18.98505102222222l1.8932622222222222 3.0758229333333333-3.8913820444444442 2.4932807111111113 3.9671125333333332-2.3709468444444446-1.7825791999999998 1.200036977777778 1.9107384888888888-1.0310997333333334a354.87307093333334 354.87307093333334 0 0 0 14.913080888888889 21.600665600000003 425.01115448888885 425.01115448888885 0 0 0 9.798360177777777 12.676118755555557h68.4428856888889a7.514794666666666 7.514794666666666 0 0 0 7.468191288888889-7.538096355555555v-43.49260231111111a7.514794666666666 7.514794666666666 0 0 0-7.468191288888889-7.538096355555555h-104.39156622222221v0.017476266666666667zM500.02293191111113 439.37646364444447h-4.258383644444445c-4.974910577777778 0.3495253333333333-7.450715022222222 3.1923313777777773-7.450715022222222 8.51676728888889 0.3553507555555555 5.324435911111111 2.8369806222222222 8.161416533333332 7.450715022222222 8.51676728888889h4.258383644444445v10.118758399999999c0.3495253333333333 14.190728533333333 7.275952355555554 21.647268977777777 20.767630222222223 22.35797048888889 8.866292622222222 0 13.305264355555554-3.0175687111111107 13.305264355555554-9.046880711111111 0-5.324435911111111-2.656392533333333-7.992479288888888-7.992479288888888-7.992479288888888-4.258383644444445 0.7048760888888888-6.390488177777779-1.7825791999999998-6.390488177777779-7.450715022222222v-7.992479288888888h5.860374755555555c6.740013511111112 0 10.118758399999999-2.842806044444444 10.118758399999999-8.51676728888889 0-5.679786666666667-3.3729194666666666-8.51676728888889-10.118758399999999-8.51676728888889h-5.860374755555555v-45.246054400000006c-0.3553507555555555-6.745838933333333-3.728270222222222-10.118758399999999-10.118758399999999-10.118758399999999-6.040962844444445 0-9.233294222222222 3.3729194666666666-9.582819555555554 10.118758399999999v45.246054400000006l0.011650844444444445 0.005825422222222223zM535.1502279111112 447.36894293333336c0.3495253333333333 6.390488177777779 3.728270222222222 9.763407644444445 10.118758399999999 10.118758399999999 6.390488177777779 0 9.582819555555554-2.842806044444444 9.582819555555554-8.51676728888889 3.541856711111111 5.6739612444444445 8.161416533333332 8.51676728888889 13.841203199999999 8.51676728888889 6.029312-0.7165269333333333 9.2274688-4.258383644444445 9.582819555555554-10.648871822222223 0-3.1923313777777773-2.656392533333333-5.860374755555555-7.992479288888888-7.992479288888888a54.339538488888884 54.339538488888884 0 0 1-3.728270222222222-1.601991111111111c-8.167241955555555-3.1923313777777773-12.070274844444443-7.450715022222222-11.714924088888889-12.775150933333334v-30.344624355555553c-0.3495253333333333-6.745838933333333-3.7166193777777776-10.118758399999999-10.101282133333335-10.118758399999999-6.040962844444445 0-9.233294222222222 3.3729194666666666-9.582819555555554 10.118758399999999l-0.005825422222222223 53.2443591111111zM596.3754154666667 413.8203363555555c1.7709283555555555-9.233294222222222 7.992479288888888-14.02179128888889 18.635525688888887-14.377142044444444 3.9030328888888888 0 8.866292622222222 1.601991111111111 14.907255466666667 4.788497066666666 3.541856711111111 2.132104533333333 6.029312 3.1923313777777773 7.450715022222222 3.1923313777777773 4.607908977777778-0.7165269333333333 7.275952355555554-3.5535075555555555 7.992479288888888-8.51676728888889-2.487455288888889-9.233294222222222-13.136327111111111-14.377142044444444-31.94079004444444-15.437368888888889-23.074497422222223 1.0660522666666665-35.313709511111114 13.305264355555554-36.72928711111111 36.72928711111111 2.132104533333333 23.424022755555555 13.841203199999999 36.024411022222225 35.13894684444445 37.8011648 20.58121671111111-1.7825791999999998 32.29031537777778-13.66061511111111 35.13894684444445-35.67488568888889 0-5.679786666666667-2.842806044444444-8.51676728888889-8.51676728888889-8.51676728888889h-42.077024711111115v0.011650844444444445z m30.8805632 12.780976355555557c-1.421403022222222 9.932344888888888-6.565250844444445 15.087843555555553-15.437368888888889 15.437368888888889-8.877943466666666-0.3553507555555555-14.202379377777776-5.505024000000001-15.973307733333334-15.437368888888889h31.410676622222223zM669.3097016888889 413.8203363555555c1.7709283555555555-9.233294222222222 7.992479288888888-14.02179128888889 18.635525688888887-14.377142044444444 3.9030328888888888 0 8.866292622222222 1.601991111111111 14.907255466666667 4.788497066666666 3.541856711111111 2.132104533333333 6.029312 3.1923313777777773 7.450715022222222 3.1923313777777773 4.607908977777778-0.7165269333333333 7.275952355555554-3.5535075555555555 7.992479288888888-8.51676728888889-2.487455288888889-9.233294222222222-13.136327111111111-14.377142044444444-31.94079004444444-15.437368888888889-23.074497422222223 1.0660522666666665-35.313709511111114 13.305264355555554-36.72928711111111 36.72928711111111 2.132104533333333 23.424022755555555 13.841203199999999 36.024411022222225 35.13894684444445 37.8011648 20.58121671111111-1.7825791999999998 32.29031537777778-13.66061511111111 35.13894684444445-35.67488568888889 0-5.679786666666667-2.842806044444444-8.51676728888889-8.51676728888889-8.51676728888889h-42.07119928888889v0.011650844444444445h-0.005825422222222223z m30.88638862222222 12.780976355555557c-1.421403022222222 9.932344888888888-6.565250844444445 15.087843555555553-15.437368888888889 15.437368888888889-8.883768888888888-0.3495253333333333-14.208204799999999-5.505024000000001-15.979133155555555-15.437368888888889h31.416502044444442z"  horiz-adv-x="1024" />

    
    <glyph glyph-name="jiantou" unicode="&#58880;" d="M907.955934 543.9850200000001L563.195206 888.745748a24.183503 24.183503 0 0 1-7.565833 5.089161c-0.087882 0.039946-0.167775 0.095871-0.263646 0.135818a24.071654 24.071654 0 0 1-3.890771 1.206379c-0.239678 0.055925-0.463377 0.159785-0.711045 0.207721-1.597853 0.319571-3.219674 0.487345-4.833505 0.487345H497.139968a24.279375 24.279375 0 0 1-19.669569-10.090441L135.65771 543.9850200000001a24.367256 24.367256 0 0 1 0-34.473676l34.473676-34.481665a24.383235 24.383235 0 0 1 34.473676 0l268.151671 268.15966V-103.61676499999999a24.375246 24.375246 0 0 1 24.383235-24.383235h48.758481a24.375246 24.375246 0 0 1 24.375246 24.383235V743.756577l268.726898-268.726898a24.383235 24.383235 0 0 1 34.473676 0l34.473676 34.481665a24.367256 24.367256 0 0 1 0.007989 34.473676z"  horiz-adv-x="1024" />

    
    <glyph glyph-name="tiaoyintai" unicode="&#58884;" d="M265.216 599.04V745.472c0 25.6-20.48 45.056-45.056 45.056-25.6 0-45.056-20.48-45.056-45.056V599.04c-39.936-17.408-68.608-57.344-68.608-104.448s27.648-87.04 68.608-104.448v-373.76c0-25.6 20.48-45.056 45.056-45.056 25.6 0 45.056 20.48 45.056 45.056V391.168c39.936 17.408 68.608 57.344 68.608 104.448s-28.672 86.016-68.608 103.424zM561.152 326.656V745.472c0 25.6-20.48 45.056-45.056 45.056-25.6 0-45.056-20.48-45.056-45.056v-418.816c-39.936-17.408-68.608-57.344-68.608-104.448S430.08 135.168 470.016 117.76v-100.352c0-25.6 20.48-45.056 45.056-45.056 25.6 0 45.056 20.48 45.056 45.056V117.76c39.936 17.408 68.608 57.344 68.608 104.448s-27.648 86.016-67.584 104.448zM925.696 609.28c0 47.104-27.648 87.04-68.608 104.448v32.768c0 25.6-20.48 45.056-45.056 45.056-25.6 0-45.056-20.48-45.056-45.056v-32.768c-39.936-17.408-68.608-57.344-68.608-104.448s27.648-87.04 68.608-104.448v-487.424c0-25.6 20.48-45.056 45.056-45.056 25.6 0 45.056 20.48 45.056 45.056V504.832c39.936 17.408 68.608 57.344 68.608 104.448z"  horiz-adv-x="1024" />

    
    <glyph glyph-name="tubiaozhizuo--" unicode="&#58881;" d="M396.1 791.9H175.2c-48 0-87-39-87-87V484c0-48 39-87 87-87h220.9c48 0 87 39 87 87V704.9c0.1 48-39 87-87 87zM441.8 484c0-25.2-20.5-45.7-45.7-45.7H175.2c-25.2 0-45.7 20.5-45.7 45.7V704.9c0 25.2 20.5 45.7 45.7 45.7h220.9c25.2 0 45.7-20.5 45.7-45.7V484zM963.1 625L775.4 812.8c-8.1 8.1-19 12.6-30.5 12.6s-22.4-4.5-30.5-12.6L526.5 625c-16.8-16.8-16.8-44.2 0-61.1l187.8-187.8c8.1-8.1 19-12.6 30.5-12.6s22.4 4.5 30.5 12.6l187.8 187.8c16.9 16.9 16.9 44.2 0 61.1zM744.8 410.7L561.1 594.5l183.8 183.8 183.8-183.8-183.9-183.8zM396.1 326.3H175.2c-48 0-87-39-87-87v-220.9c0-48 39-87 87-87h220.9c48 0 87 39 87 87V239.3c0.1 48-39 87-87 87z m45.7-307.9c0-25.2-20.5-45.7-45.7-45.7H175.2c-25.2 0-45.7 20.5-45.7 45.7V239.3c0 25.2 20.5 45.7 45.7 45.7h220.9c25.2 0 45.7-20.5 45.7-45.7v-220.9zM855.3 326.3H634.4c-48 0-87-39-87-87v-220.9c0-48 39-87 87-87h220.9c48 0 87 39 87 87V239.3c0 48-39 87-87 87zM901 18.4c0-25.2-20.5-45.7-45.7-45.7H634.4c-25.2 0-45.7 20.5-45.7 45.7V239.3c0 25.2 20.5 45.7 45.7 45.7h220.9c25.2 0 45.7-20.5 45.7-45.7v-220.9z"  horiz-adv-x="1024" />

    
    <glyph glyph-name="wujiaoxing" unicode="&#58973;" d="M759.296-106.7008c-14.5408 0-28.0576 3.7888-40.96 10.9568L520.8064 13.9264c-4.8128 2.7648-10.24 2.7648-15.1552 0L308.224-95.8464c-12.9024-7.0656-26.9312-10.9568-40.96-10.9568-25.3952 0-49.152 11.4688-65.8432 31.6416-17.3056 20.1728-24.2688 47.5136-19.968 74.8544l37.7856 232.6528c1.1264 6.5536-1.1264 13.6192-5.4272 18.5344L53.5552 414.72c-23.7568 24.576-31.8464 60.6208-21.0944 93.9008 10.752 32.256 37.2736 55.1936 69.632 60.6208L322.7648 603.136c5.4272 1.1264 10.24 4.9152 12.9024 10.3424l99.328 211.3536c14.5408 31.6416 44.7488 51.3024 78.7456 51.3024s63.6928-19.6608 78.7456-51.3024L691.2 613.4784c2.6624-5.4272 7.5776-9.3184 12.9024-10.3424l220.672-33.8944c32.3584-4.9152 59.392-28.3648 69.632-60.6208 10.752-33.28 2.6624-69.3248-21.0944-93.9008l-159.744-164.864c-4.3008-4.4032-6.4512-11.4688-5.4272-18.5344l37.7856-232.6528c4.3008-26.7264-2.6624-54.0672-19.968-74.8544-16.9984-19.0464-41.2672-30.5152-66.6624-30.5152zM513.2288 78.1312c14.7456 0 29.2864-3.8912 42.1888-11.264l203.0592-112.8448c2.7648-1.6384 5.0176-2.2528 7.7824-2.2528 4.4032 0 9.4208 2.2528 12.8 6.7584 2.7648 3.3792 6.144 9.0112 4.4032 17.408L744.6528 215.04c-5.0176 29.7984 4.4032 60.6208 25.4976 81.92L934.912 466.6368c8.2944 8.3968 5.5296 19.0464 5.0176 22.4256-1.1264 3.3792-5.0176 11.776-14.4384 12.9024l-226.9184 34.816c-29.3888 4.5056-54.8864 23.552-67.6864 51.6096L529.3056 806.2976c-4.4032 9.5232-11.6736 10.6496-15.5648 10.6496s-11.0592-1.6384-15.5648-10.6496l-102.0928-217.2928c-12.8-28.0576-38.2976-47.2064-67.6864-51.6096l-226.9184-34.816c-9.4208-1.6384-13.312-9.5232-14.4384-12.9024-1.1264-2.7648-3.8912-14.0288 5.0176-22.4256l164.2496-169.5744c20.48-21.2992 30.0032-51.6096 25.4976-81.92l-38.8096-239.104c-1.6384-8.3968 1.6384-14.6432 4.4032-17.92 3.3792-3.8912 8.2944-6.7584 12.8-6.7584 2.7648 0 5.0176 0.512 7.7824 2.2528L471.04 67.072c12.8 7.168 27.7504 11.0592 42.1888 11.0592z"  horiz-adv-x="1024" />

    
    <glyph glyph-name="kefu" unicode="&#58981;" d="M516.096-95.232c-6.144 0-10.24 0-14.336 2.048C432.128-66.56 389.12-46.08 368.64-33.792c-198.656 102.4-317.44 270.336-317.44 446.464 0 247.808 212.992 458.752 464.896 458.752s464.896-210.944 464.896-458.752c0-180.224-114.688-348.16-309.248-446.464-34.816-18.432-81.92-36.864-143.36-59.392-4.096-2.048-8.192-2.048-12.288-2.048z m0 884.736c-206.848 0-382.976-172.032-382.976-376.832 0-145.408 102.4-286.72 272.384-374.784h2.048c12.288-6.144 38.912-20.48 108.544-49.152 51.2 18.432 90.112 34.816 116.736 49.152 165.888 86.016 264.192 225.28 264.192 374.784 2.048 204.8-172.032 376.832-380.928 376.832zM518.144 154.624c-92.16 0-165.888 43.008-221.184 126.976-12.288 18.432-8.192 45.056 12.288 57.344 18.432 12.288 45.056 8.192 57.344-12.288 38.912-61.44 90.112-88.064 153.6-90.112 96.256 0 139.264 67.584 153.6 92.16 12.288 18.432 36.864 24.576 57.344 12.288 18.432-12.288 24.576-36.864 12.288-57.344-55.296-86.016-131.072-129.024-225.28-129.024z"  horiz-adv-x="1024" />

    
    <glyph glyph-name="yonghu" unicode="&#59168;" d="M624.06054713 347.74511743999994c-26.36718725-19.77539063-59.32617188-29.66308594-95.5810552-29.66308594s-65.9179685 9.88769531-95.58105443 29.66308594c0-3.29589869-3.29589869-3.29589869-6.59179662-3.29589869C360.38867162 304.8984375 314.24609375 232.38867161999997 314.24609375 153.28710911999997c0-9.88769531-6.59179662-16.47949193-16.47949193-16.47949193S281.28710912 143.39941381000006 281.28710912 153.28710911999997c0 92.2851565 49.43847656 174.68261693 128.54003906 217.52929688-29.66308594 29.66308594-46.14257787 69.21386719-46.14257787 112.06054712 0 92.2851565 72.50976588 164.79492162 164.79492162 164.79492163s164.79492162-72.50976588 164.79492239-164.79492163c0-42.84667994-16.47949193-82.39746119-46.14257864-112.06054712 79.1015625-42.84667994 128.54003906-125.24414037 128.54003907-217.52929688 0-9.88769531-6.59179662-16.47949193-16.47949194-16.47949193s-16.47949193 6.59179662-16.47949193 16.47949193c0 79.1015625-46.14257787 151.61132838-115.35644582 191.16210963 0 0-3.29589869 0-3.29589793 3.29589869z m-95.5810552 3.29589793c72.50976588 0 131.83593775 59.32617188 131.83593776 131.83593776s-59.32617188 131.83593775-131.83593776 131.83593775-131.83593775-59.32617188-131.83593699-131.83593776 59.32617188-131.83593775 131.83593699-131.83593775z"  horiz-adv-x="1024" />

    
    <glyph glyph-name="jita" unicode="&#58882;" d="M631.4 487.9L593 421.4l-67.5 39 38.5 66.7c-66.1 25.3-138.7 19-160.3-49.1-8.4-26.5-12.6-50.8-12.7-73h-0.1c0.4-12.1-2.7-25.2-9.8-38.7-8.6-16.5-23.9-26.8-40.8-30.9 0-0.1 0-0.1-0.1-0.2-60.3-9.9-114.5-43.6-142.3-91.8-59.2-102.5 4.9-183.1 107.3-242.2 102.4-59.1 204.2-74.3 263.4 28.2 26.9 46.6 29.7 107.9 10.2 163.8-0.5 1.4-1 2.7-1.5 4.1-0.1 0.4-0.3 0.8-0.4 1.2-5.3 17-4.7 35.8 5.3 51.7 8.6 13.5 18.8 22.9 30 28.5v0.3c18.5 11.1 37 26.6 55.6 46.6 48.7 51.7 18.1 117.6-36.4 162.3zM494.7 127.2c-2.8-4.8-8.9-6.4-13.7-3.7l-157.6 91c-4.8 2.8-6.4 8.9-3.7 13.7 2.8 4.8 8.9 6.4 13.7 3.7l157.6-91c4.8-2.8 6.5-8.9 3.7-13.7z m56.6 135.9c-22.6-39.2-72.8-52.7-112-30-39.2 22.6-52.7 72.8-30 112 22.6 39.2 72.8 52.7 112 30 39.2-22.6 52.6-72.8 30-112z m178 570.4L674 717.6l11.7-6.8-142.4-246.4 44.2-25.5 142.3 246.5 11.7-6.8 72.7 105.9-84.9 49z m-216-472.2c-31.6 18.2-71.9 7.4-90.2-24.2-18.2-31.6-7.4-71.9 24.2-90.2 31.6-18.2 71.9-7.4 90.2 24.2 18.1 31.6 7.3 71.9-24.2 90.2z"  horiz-adv-x="1024" />

    
    <glyph glyph-name="caidan" unicode="&#58899;" d="M333.275 704.951h597.418c16.511 0 29.871 14.328 29.871 32s-13.36 32-29.871 32H333.275c-16.496 0-29.871-14.328-29.871-32s13.375-32 29.871-32zM930.693 416.5H333.275c-16.496 0-29.871-14.328-29.871-32s13.375-32 29.871-32h597.418c16.511 0 29.871 14.328 29.871 32s-13.36 32-29.871 32z m0-352.451H333.275c-16.496 0-29.871-14.313-29.871-32 0-17.687 13.375-32 29.871-32h597.418c16.511 0 29.871 14.313 29.871 32 0 17.687-13.36 32-29.871 32zM128.197 798.693c-35.211 0-63.76-28.549-63.76-63.76s28.549-63.76 63.76-63.76 63.761 28.549 63.761 63.76-28.55 63.76-63.761 63.76z m-0.118-350.659c-35.146 0-63.642-28.681-63.642-64.055 0-35.373 28.496-64.053 63.642-64.053s63.642 28.681 63.642 64.053c0 35.374-28.496 64.055-63.642 64.055z m-0.382-354.243c-34.935 0-63.26-28.325-63.26-63.261s28.325-63.26 63.26-63.26 63.261 28.324 63.261 63.26-28.326 63.261-63.261 63.261z"  horiz-adv-x="1024" />

    
    <glyph glyph-name="shuangyoujiantou-" unicode="&#58922;" d="M151.467 691.627a34.133 34.133 0 1 0 48.213 48.213l331.947-331.947a34.133 34.133 0 0 0 0-48.213L199.68 28.16a34.133 34.133 0 1 0-48.213 48.213L459.093 384z m341.333 0a34.133 34.133 0 0 0 48.213 48.213L872.96 407.893a34.133 34.133 0 0 0 0-48.213L541.013 27.733a34.133 34.133 0 0 0-48.213 48.214L800.427 384z"  horiz-adv-x="1024" />

    
    <glyph glyph-name="icon_sousuo" unicode="&#59069;" d="M615.141 334.528c45.432 63.923 45.432 149.613 0 213.541-58.971 82.964-174.027 102.4-256.992 43.427-82.945-58.97-102.381-174.003-43.412-256.968 58.979-82.944 174.027-102.4 256.971-43.432l88.834-88.823c0.24-0.265 0.5-0.524 0.75-0.76 12.197-11.777 31.635-11.438 43.434 0.76 11.777 12.198 11.438 31.634-0.762 43.427l-88.823 88.828z m-63.129 19.777h-0.02c-47.971-47.971-125.756-47.971-173.729 0-47.99 47.991-47.99 125.776 0 173.748 47.992 47.971 125.777 47.971 173.748 0h-0.09c48.003-47.972 48.042-125.757 0.091-173.748zM512 813.999c-237.477 0-430-192.504-430-430 0-237.48 192.523-430 430-430 237.475 0 430 192.519 430 430 0 237.496-192.525 430-430 430z m0-798.571c-203.563 0-368.572 165.004-368.572 368.571 0 203.542 165.01 368.572 368.572 368.572 203.561 0 368.57-165.029 368.57-368.572 0.001-203.562-165.009-368.571-368.57-368.571z"  horiz-adv-x="1024" />

    
    <glyph glyph-name="qitiantuihuan" unicode="&#58904;" d="M168.96 729.6c74.24 74.24 168.96 122.88 273.92 135.68 128 17.92 256-15.36 360.96-92.16s171.52-192 189.44-320c38.4-266.24-145.92-512-412.16-550.4-110.08-15.36-225.28 7.68-322.56 66.56-15.36 10.24-20.48 30.72-12.8 48.64 10.24 15.36 30.72 20.48 48.64 12.8 81.92-51.2 179.2-69.12 276.48-56.32 227.84 33.28 386.56 243.2 353.28 471.04-15.36 110.08-74.24 207.36-163.84 273.92-87.04 64-197.12 92.16-307.2 76.8C225.28 762.88 66.56 552.96 99.84 325.12c7.68-58.88 28.16-115.2 61.44-166.4 10.24-15.36 5.12-38.4-10.24-48.64-15.36-10.24-38.4-5.12-48.64 10.24-38.4 58.88-61.44 122.88-71.68 192-17.92 128 15.36 256 92.16 360.96 15.36 20.48 30.72 38.4 46.08 56.32z m204.8-209.92v102.4c0 15.36 10.24 23.04 30.72 25.6 20.48-2.56 30.72-10.24 33.28-25.6v-99.84l304.64 20.48c17.92-2.56 28.16-12.8 30.72-33.28 0-17.92-7.68-28.16-25.6-30.72L435.2 460.8v-197.12c-5.12-28.16 28.16-40.96 94.72-40.96h64c58.88-10.24 84.48 23.04 79.36 97.28 0 20.48 10.24 30.72 30.72 33.28 20.48-2.56 30.72-12.8 33.28-33.28 0-66.56-10.24-107.52-30.72-122.88-17.92-20.48-58.88-30.72-125.44-30.72h-71.68c-92.16 0-138.24 20.48-135.68 61.44v230.4l-92.16-7.68c-20.48-2.56-30.72 7.68-33.28 25.6-2.56 23.04 7.68 35.84 25.6 38.4l99.84 5.12z"  horiz-adv-x="1024" />

    


  </font>
</defs>
</svg>
